<?xml version="1.0" encoding="utf-8"?>
<svg xmlns="http://www.w3.org/2000/svg">
  <defs>


  <symbol id="youtube" viewBox="0 0 48 48">
    <path fill="#FF3D00" d="M43.2,33.9c-0.4,2.1-2.1,3.7-4.2,4c-3.3,0.5-8.8,1.1-15,1.1c-6.1,0-11.6-0.6-15-1.1c-2.1-0.3-3.8-1.9-4.2-4C4.4,31.6,4,28.2,4,24c0-4.2,0.4-7.6,0.8-9.9c0.4-2.1,2.1-3.7,4.2-4C12.3,9.6,17.8,9,24,9c6.2,0,11.6,0.6,15,1.1c2.1,0.3,3.8,1.9,4.2,4c0.4,2.3,0.9,5.7,0.9,9.9C44,28.2,43.6,31.6,43.2,33.9z"/>
    <path fill="#FFF" d="M20 31L20 17 32 24z"/>
  </symbol>

 <symbol id="vk" viewBox="0 0 48 48">
    <path fill="#1976d2" d="M42,37c0,2.762-2.238,5-5,5H11c-2.761,0-5-2.238-5-5V11c0-2.762,2.239-5,5-5h26c2.762,0,5,2.238,5,5 V37z"/>
    <path fill="#fff" d="M35.937,18.041c0.046-0.151,0.068-0.291,0.062-0.416C35.984,17.263,35.735,17,35.149,17h-2.618 c-0.661,0-0.966,0.4-1.144,0.801c0,0-1.632,3.359-3.513,5.574c-0.61,0.641-0.92,0.625-1.25,0.625C26.447,24,26,23.786,26,23.199 v-5.185C26,17.32,25.827,17,25.268,17h-4.649C20.212,17,20,17.32,20,17.641c0,0.667,0.898,0.827,1,2.696v3.623 C21,24.84,20.847,25,20.517,25c-0.89,0-2.642-3-3.815-6.932C16.448,17.294,16.194,17,15.533,17h-2.643 C12.127,17,12,17.374,12,17.774c0,0.721,0.6,4.619,3.875,9.101C18.25,30.125,21.379,32,24.149,32c1.678,0,1.85-0.427,1.85-1.094 v-2.972C26,27.133,26.183,27,26.717,27c0.381,0,1.158,0.25,2.658,2c1.73,2.018,2.044,3,3.036,3h2.618 c0.608,0,0.957-0.255,0.971-0.75c0.003-0.126-0.015-0.267-0.056-0.424c-0.194-0.576-1.084-1.984-2.194-3.326 c-0.615-0.743-1.222-1.479-1.501-1.879C32.062,25.36,31.991,25.176,32,25c0.009-0.185,0.105-0.361,0.249-0.607 C32.223,24.393,35.607,19.642,35.937,18.041z"/>
  </symbol>

<symbol id="applemusic" viewBox="0 0 48 48">
    <path fill="#f50057" d="M42,37c0,2.762-2.238,5-5,5H11c-2.761,0-5-2.238-5-5V11c0-2.762,2.239-5,5-5h26c2.762,0,5,2.238,5,5 V37z"/>
    <path fill="#fff" d="M19.775,14.821C19.321,14.926,19,15.33,19,15.796V29c0,0.552-0.448,1-1,1h-1c-2.209,0-4,1.343-4,3s1.791,3,4,3s4-1.343,4-3V21.334c0-0.466,0.321-0.87,0.775-0.974l7.306-1.686C29.551,18.565,30,18.922,30,19.404V26 c0,0.552-0.448,1-1,1h-1c-2.209,0-4,1.343-4,3s1.791,3,4,3s4-1.343,4-3V13.257c0-0.643-0.598-1.119-1.225-0.974L19.775,14.821z"/>
  </symbol>

  <symbol id="soundcloud" viewBox="0 0 48 48">
    <path fill="#FF5722" d="M10 33.018c.596 0 1.265 0 2 0V19.041c-1.11 1.001-1.699 2.212-2 3.121V33.018zM21 18.105c-.675-.316-1.752-.715-3-.837v15.749c.976 0 1.98 0 3 0V18.105zM14 33.018c.943 0 1.95 0 3 0V17.24c-1.173.03-2.171.23-3 .558V33.018zM4 23.953c-1.178.896-2 2.35-2 4.039 0 1.586.795 2.987 2 3.905V23.953zM40.995 22.016c-1.444 0-2.283.521-2.283.521s-.839-8.488-9.271-8.488c-4.906 0-6.83 2.704-7.441 3.897v15.071c8.825 0 18.297 0 18.297 0s5.869-.094 5.869-5.453C46.166 23.439 42.439 22.016 40.995 22.016zM8 23.1c-.395-.051-.842-.088-1.341-.088-.223 0-.441.037-.659.073v9.767c.423.104.861.166 1.311.166.151 0 .393 0 .689 0V23.1z"/>
  </symbol>

<symbol id="spotify" viewBox="0 0 48 48">
  <linearGradient id="tS~Tu1dsT5kMXF2Lct~HUa" x1="24.001" x2="24.001" y1="-4.765" y2="56.31" gradientUnits="userSpaceOnUse"><stop offset="0" stop-color="#4caf50"/><stop offset=".489" stop-color="#4aaf50"/><stop offset=".665" stop-color="#43ad50"/><stop offset=".79" stop-color="#38aa50"/><stop offset=".892" stop-color="#27a550"/><stop offset=".978" stop-color="#11a050"/><stop offset="1" stop-color="#0a9e50"/></linearGradient><path fill="url(#tS~Tu1dsT5kMXF2Lct~HUa)" d="M24.001,4c-11.077,0-20,8.923-20,20s8.923,20,20,20c11.076,0,20-8.923,20-20	S35.077,4,24.001,4z"/><path d="M21.224,15.938c5.554,0,11.4,1.17,15.785,3.654c0.584,0.293,1.022,0.877,1.022,1.754 c-0.145,1.023-0.877,1.755-1.899,1.755c-0.438,0-0.585-0.146-1.023-0.291c-3.508-2.047-8.769-3.217-13.885-3.217 c-2.631,0-5.262,0.293-7.6,0.877c-0.293,0-0.585,0.146-1.023,0.146c-0.075,0.011-0.149,0.016-0.221,0.016 c-0.905,0-1.533-0.821-1.533-1.77c0-1.023,0.585-1.607,1.315-1.754C14.939,16.231,17.862,15.938,21.224,15.938 M20.785,22.369 c4.97,0,9.793,1.17,13.593,3.507c0.584,0.291,0.877,0.877,0.877,1.461c0,0.878-0.585,1.608-1.462,1.608 c-0.438,0-0.73-0.144-1.023-0.291c-3.068-1.9-7.308-3.071-12.13-3.071c-2.339,0-4.531,0.293-6.139,0.733 c-0.439,0.144-0.585,0.144-0.877,0.144c-0.877,0-1.462-0.73-1.462-1.461c0-0.877,0.439-1.316,1.169-1.607 C15.523,22.808,17.716,22.369,20.785,22.369 M21.223,28.654c4.093,0,7.893,1.021,11.108,2.924 c0.438,0.291,0.731,0.584,0.731,1.314c-0.146,0.586-0.731,1.023-1.315,1.023c-0.292,0-0.585-0.145-0.877-0.292 c-2.777-1.607-6.139-2.484-9.792-2.484c-2.047,0-4.093,0.291-5.993,0.73c-0.292,0-0.731,0.146-0.877,0.146 c-0.731,0-1.169-0.586-1.169-1.17c0-0.73,0.438-1.17,1.023-1.314C16.4,28.945,18.739,28.654,21.223,28.654 M21.224,14.938 c-3.789,0-6.666,0.371-9.317,1.202c-1.254,0.279-2.06,1.341-2.06,2.722c0,1.553,1.112,2.77,2.533,2.77 c0.095,0,0.192-0.005,0.291-0.017c0.319-0.007,0.574-0.065,0.764-0.107c0.068-0.015,0.13-0.035,0.193-0.038h0.123l0.116-0.03 c2.219-0.554,4.763-0.847,7.358-0.847c5.073,0,10.075,1.152,13.381,3.081l0.09,0.053l0.099,0.033 c0.109,0.036,0.195,0.073,0.273,0.105c0.251,0.105,0.563,0.236,1.065,0.236c1.483,0,2.671-1.075,2.889-2.615l0.01-0.07v-0.071 c0-1.171-0.564-2.13-1.549-2.635C33.238,16.313,27.314,14.938,21.224,14.938L21.224,14.938z M20.785,21.369 c-3.291,0-5.651,0.508-7.711,1.057l-0.058,0.015l-0.055,0.022c-1.194,0.476-1.799,1.329-1.799,2.536 c0,1.357,1.104,2.461,2.462,2.461c0.371,0,0.626-0.009,1.189-0.194c1.572-0.429,3.714-0.683,5.827-0.683 c4.441,0,8.562,1.037,11.603,2.921l0.038,0.024l0.04,0.02c0.334,0.168,0.792,0.397,1.471,0.397c1.404,0,2.462-1.121,2.462-2.608 c0-0.996-0.53-1.886-1.387-2.334C31.04,22.659,26.04,21.369,20.785,21.369L20.785,21.369z M21.223,27.654 c-2.547,0-4.969,0.297-7.404,0.907c-1.096,0.27-1.78,1.145-1.78,2.284c0,1.217,0.953,2.17,2.169,2.17 c0.172,0,0.334-0.037,0.522-0.079c0.101-0.023,0.288-0.065,0.357-0.067l0.101-0.003l0.122-0.023 c2.023-0.467,3.963-0.704,5.768-0.704c3.422,0,6.635,0.812,9.291,2.35l0.025,0.015l0.026,0.013 c0.334,0.168,0.792,0.399,1.327,0.399c1.05,0,2.032-0.766,2.285-1.781l0.03-0.119v-0.123c0-1.202-0.595-1.76-1.178-2.147 l-0.022-0.014l-0.022-0.013C29.455,28.713,25.437,27.654,21.223,27.654L21.223,27.654z" opacity=".05"/><path d="M21.224,15.938c5.554,0,11.4,1.17,15.785,3.654c0.584,0.293,1.022,0.877,1.022,1.754 c-0.145,1.023-0.877,1.755-1.899,1.755c-0.438,0-0.585-0.146-1.023-0.291c-3.508-2.047-8.769-3.217-13.885-3.217 c-2.631,0-5.262,0.293-7.6,0.877c-0.293,0-0.585,0.146-1.023,0.146c-0.075,0.011-0.149,0.016-0.221,0.016 c-0.905,0-1.533-0.821-1.533-1.77c0-1.023,0.585-1.607,1.315-1.754C14.939,16.231,17.862,15.938,21.224,15.938 M20.785,22.369 c4.97,0,9.793,1.17,13.593,3.507c0.584,0.291,0.877,0.877,0.877,1.461c0,0.878-0.585,1.608-1.462,1.608 c-0.438,0-0.73-0.144-1.023-0.291c-3.068-1.9-7.308-3.071-12.13-3.071c-2.339,0-4.531,0.293-6.139,0.733 c-0.439,0.144-0.585,0.144-0.877,0.144c-0.877,0-1.462-0.73-1.462-1.461c0-0.877,0.439-1.316,1.169-1.607 C15.523,22.808,17.716,22.369,20.785,22.369 M21.223,28.654c4.093,0,7.893,1.021,11.108,2.924 c0.438,0.291,0.731,0.584,0.731,1.314c-0.146,0.586-0.731,1.023-1.315,1.023c-0.292,0-0.585-0.145-0.877-0.292 c-2.777-1.607-6.139-2.484-9.792-2.484c-2.047,0-4.093,0.291-5.993,0.73c-0.292,0-0.731,0.146-0.877,0.146 c-0.731,0-1.169-0.586-1.169-1.17c0-0.73,0.438-1.17,1.023-1.314C16.4,28.945,18.739,28.654,21.223,28.654 M21.224,15.438 c-3.747,0-6.582,0.366-9.188,1.186c-1.042,0.222-1.689,1.078-1.689,2.238c0,1.273,0.893,2.27,2.033,2.27 c0.084,0,0.169-0.005,0.257-0.016c0.28-0.004,0.506-0.055,0.689-0.096c0.119-0.027,0.222-0.05,0.299-0.05h0.061l0.06-0.015 c2.258-0.564,4.844-0.862,7.479-0.862c5.158,0,10.254,1.177,13.633,3.149l0.045,0.026l0.05,0.016 c0.123,0.041,0.221,0.082,0.309,0.119c0.231,0.097,0.47,0.197,0.871,0.197c1.247,0,2.209-0.878,2.394-2.185l0.005-0.035v-0.035 c0-0.985-0.473-1.787-1.298-2.201C33.083,16.794,27.24,15.438,21.224,15.438L21.224,15.438z M20.785,21.869 c-3.054,0-5.24,0.416-7.583,1.04l-0.029,0.008l-0.028,0.011c-0.637,0.254-1.484,0.745-1.484,2.071c0,0.943,0.75,1.961,1.962,1.961 c0.34,0,0.541-0.008,1.033-0.169c1.637-0.447,3.827-0.708,5.983-0.708c4.533,0,8.747,1.064,11.867,2.996 c0.345,0.175,0.725,0.366,1.286,0.366c1.119,0,1.962-0.906,1.962-2.108c0-0.823-0.442-1.554-1.154-1.909 C30.885,23.141,25.965,21.869,20.785,21.869L20.785,21.869z M21.223,28.154c-2.506,0-4.888,0.292-7.283,0.892 c-0.864,0.213-1.401,0.902-1.401,1.799c0,0.821,0.624,1.67,1.669,1.67c0.116,0,0.246-0.029,0.411-0.067 c0.148-0.033,0.351-0.079,0.466-0.079h0.057l0.056-0.013c2.06-0.476,4.038-0.717,5.88-0.717c3.51,0,6.809,0.836,9.542,2.417 c0.331,0.168,0.712,0.359,1.127,0.359c0.827,0,1.601-0.603,1.8-1.402l0.015-0.06v-0.061c0-1.012-0.493-1.424-0.954-1.73 C29.277,29.189,25.348,28.154,21.223,28.154L21.223,28.154z" opacity=".07"/><path fill="#fff" d="M31.747,33.915c-0.292,0-0.585-0.145-0.877-0.292c-2.777-1.607-6.139-2.484-9.792-2.484 c-2.047,0-4.093,0.291-5.993,0.73c-0.292,0-0.731,0.146-0.877,0.146c-0.731,0-1.169-0.586-1.169-1.17 c0-0.73,0.438-1.17,1.023-1.314c2.338-0.586,4.677-0.877,7.161-0.877c4.093,0,7.893,1.021,11.108,2.924 c0.438,0.291,0.731,0.584,0.731,1.314C32.916,33.478,32.331,33.915,31.747,33.915z M33.793,28.945c-0.438,0-0.73-0.144-1.023-0.291 c-3.068-1.9-7.308-3.071-12.13-3.071c-2.339,0-4.531,0.293-6.139,0.733c-0.439,0.144-0.585,0.144-0.877,0.144 c-0.877,0-1.462-0.73-1.462-1.461c0-0.877,0.439-1.316,1.169-1.607c2.192-0.584,4.385-1.023,7.454-1.023 c4.97,0,9.793,1.17,13.593,3.507c0.584,0.291,0.877,0.877,0.877,1.461C35.255,28.215,34.67,28.945,33.793,28.945z M36.132,23.101 c-0.438,0-0.585-0.146-1.023-0.291c-3.508-2.047-8.769-3.217-13.885-3.217c-2.631,0-5.262,0.293-7.6,0.877 c-0.293,0-0.585,0.146-1.023,0.146c-1.023,0.146-1.754-0.73-1.754-1.754c0-1.023,0.585-1.607,1.315-1.754 c2.777-0.877,5.7-1.17,9.062-1.17c5.554,0,11.4,1.17,15.785,3.654c0.584,0.293,1.022,0.877,1.022,1.754 C37.886,22.369,37.154,23.101,36.132,23.101z"/>
</symbol>

 <symbol id="yandexmusic" viewBox="0 0 50 50">
    <linearGradient id="6jI6Rvqxb3tvVzfHkFPv4a" x1="10.209" x2="38.481" y1="11.52" y2="39.792" gradientUnits="userSpaceOnUse">
      <stop offset="0" stop-color="#ffd869"/>
      <stop offset="1" stop-color="#fec52b"/>
    </linearGradient>
    <circle cx="25" cy="25" r="7" fill="#f14551"/>
    <path fill="#f14551" d="M39.99,11.77l-3.41,5.37c-1.79-2.63-4.46-4.63-7.58-5.56V5.4C33.33,6.28,37.17,8.57,39.99,11.77z"/>
    <rect width="3" height="16" x="29" y="9" fill="#f14551"/>
  </symbol>

 <symbol id="telegram" viewBox="0 0 48 48">
   <path fill="#29b6f6" d="M24 4A20 20 0 1 0 24 44A20 20 0 1 0 24 4Z"/><path fill="#fff" d="M33.95,15l-3.746,19.126c0,0-0.161,0.874-1.245,0.874c-0.576,0-0.873-0.274-0.873-0.274l-8.114-6.733 l-3.97-2.001l-5.095-1.355c0,0-0.907-0.262-0.907-1.012c0-0.625,0.933-0.923,0.933-0.923l21.316-8.468 c-0.001-0.001,0.651-0.235,1.126-0.234C33.667,14,34,14.125,34,14.5C34,14.75,33.95,15,33.95,15z"/><path fill="#b0bec5" d="M23,30.505l-3.426,3.374c0,0-0.149,0.115-0.348,0.12c-0.069,0.002-0.143-0.009-0.219-0.043 l0.964-5.965L23,30.505z"/><path fill="#cfd8dc" d="M29.897,18.196c-0.169-0.22-0.481-0.26-0.701-0.093L16,26c0,0,2.106,5.892,2.427,6.912 c0.322,1.021,0.58,1.045,0.58,1.045l0.964-5.965l9.832-9.096C30.023,18.729,30.064,18.416,29.897,18.196z"/>
  </symbol>
 <symbol id="github" viewBox="0 0 48 48">
 <path d="M 32 10 C 19.85 10 10 19.85 10 32 C 10 44.15 19.85 54 32 54 C 44.15 54 54 44.15 54 32 C 54 19.85 44.15 10 32 10 z M 32 14 C 41.941 14 50 22.059 50 32 C 50 40.238706 44.458716 47.16934 36.904297 49.306641 C 36.811496 49.1154 36.747844 48.905917 36.753906 48.667969 C 36.784906 47.458969 36.753906 44.637563 36.753906 43.601562 C 36.753906 41.823563 35.628906 40.5625 35.628906 40.5625 C 35.628906 40.5625 44.453125 40.662094 44.453125 31.246094 C 44.453125 27.613094 42.554688 25.720703 42.554688 25.720703 C 42.554688 25.720703 43.551984 21.842266 42.208984 20.197266 C 40.703984 20.034266 38.008422 21.634812 36.857422 22.382812 C 36.857422 22.382813 35.034 21.634766 32 21.634766 C 28.966 21.634766 27.142578 22.382812 27.142578 22.382812 C 25.991578 21.634813 23.296016 20.035266 21.791016 20.197266 C 20.449016 21.842266 21.445312 25.720703 21.445312 25.720703 C 21.445312 25.720703 19.546875 27.611141 19.546875 31.244141 C 19.546875 40.660141 28.371094 40.5625 28.371094 40.5625 C 28.371094 40.5625 27.366329 41.706312 27.265625 43.345703 C 26.675939 43.553637 25.872132 43.798828 25.105469 43.798828 C 23.255469 43.798828 21.849984 42.001922 21.333984 41.169922 C 20.825984 40.348922 19.7845 39.660156 18.8125 39.660156 C 18.1725 39.660156 17.859375 39.981656 17.859375 40.347656 C 17.859375 40.713656 18.757609 40.968484 19.349609 41.646484 C 20.597609 43.076484 20.574484 46.292969 25.021484 46.292969 C 25.547281 46.292969 26.492043 46.171872 27.246094 46.068359 C 27.241926 47.077908 27.230199 48.046135 27.246094 48.666016 C 27.251958 48.904708 27.187126 49.114952 27.09375 49.306641 C 19.540258 47.168741 14 40.238046 14 32 C 14 22.059 22.059 14 32 14 z"></path>
  </symbol>
 


  </defs>
</svg>


